<svg width="26" height="26" viewBox="0 0 26 26" fill="none" xmlns="http://www.w3.org/2000/svg">
<path d="M24.5275 4.3068C25.1147 3.61656 25.1147 2.59764 24.4949 1.9074C23.875 1.21717 22.7985 1.11856 22.0808 1.67732C22.0155 0.789876 21.2978 0.0667689 20.3518 0.00103195C19.3731 -0.0318365 18.5249 0.724139 18.4923 1.74306L18.3944 4.01099C17.1221 3.41935 15.7519 3.38649 14.3165 3.87951C10.467 5.19425 6.87854 10.2231 4.52969 14.1673C1.95249 18.5389 0.158236 22.9104 0.0277444 23.7978C-0.070124 24.5209 0.0929902 25.1454 0.484464 25.5398C0.778069 25.8357 1.26741 26 1.822 26C1.95249 26 2.08298 26 2.21347 25.9671C3.12691 25.8357 7.43312 24.0279 11.772 21.4313C15.7193 19.0648 20.678 15.4492 21.9829 11.5707C22.4396 10.2231 22.4396 8.97413 21.9829 7.79086L24.136 7.8566C24.1686 7.8566 24.2013 7.8566 24.2013 7.8566C24.658 7.8566 25.0821 7.69226 25.4083 7.36357C25.7671 7.03489 25.9629 6.57473 25.9955 6.11457C26.0608 5.22712 25.4083 4.43828 24.5275 4.3068ZM23.6467 2.66338C23.9076 2.92633 23.875 3.38649 23.614 3.64943L21.0042 6.0817C20.678 5.68728 20.3518 5.35859 20.0582 5.06278L22.7006 2.63051C22.9616 2.36756 23.4183 2.36756 23.6467 2.66338ZM20.3191 1.11856C20.7106 1.11856 20.9716 1.44725 20.9716 1.84167L20.939 2.69625L19.5036 4.01099L19.6014 1.77593C19.6341 1.41438 19.9277 1.11856 20.3191 1.11856ZM20.939 11.2421C20.2539 13.247 18.4596 15.1863 16.3718 16.9283L13.7293 14.266L12.9464 15.0548L15.491 17.6185C14.5449 18.3416 13.5662 18.999 12.6202 19.6235L11.6415 18.6375L10.8585 19.4263L11.6741 20.248C11.511 20.3466 11.3805 20.4124 11.25 20.511C6.78067 23.1733 2.70282 24.8167 2.1156 24.8825C1.59364 24.9482 1.33266 24.8496 1.26741 24.751C1.20217 24.6853 1.07167 24.4223 1.13692 23.9622C1.16954 23.5677 1.822 21.8257 2.9638 19.4592L3.35527 19.8536L4.13822 19.0648L3.48576 18.4074C4.07297 17.257 4.72543 16.0409 5.47575 14.759C5.83461 14.1673 6.19346 13.5428 6.58493 12.9183L8.05296 14.3974L8.8359 13.6086L7.20476 11.9652C8.18345 10.5189 9.26 9.1056 10.4344 7.92234L13.6641 11.1763L14.447 10.3875L11.2174 7.13349C12.3265 6.11457 13.4683 5.32573 14.6101 4.9313C15.1647 4.73409 15.6867 4.66836 16.176 4.66836C17.3831 4.66836 18.4923 5.19425 19.5688 6.27891C21.1347 7.75799 21.5588 9.40142 20.939 11.2421ZM24.6906 6.6076C24.5601 6.73907 24.397 6.80481 24.2013 6.77194L21.9829 6.67333L23.3857 5.35859L24.2339 5.39146C24.6253 5.39146 24.8863 5.72015 24.8863 6.11457C24.8863 6.31178 24.8211 6.47612 24.6906 6.6076Z" fill="#666A6C"/>
</svg>
