<svg width="26" height="26" viewBox="0 0 26 26" fill="none" xmlns="http://www.w3.org/2000/svg">
<path d="M13 0C20.172 0 26 5.82802 26 13C26 20.172 20.172 26 13 26C5.82802 26 0 20.172 0 13C0 5.82802 5.82803 0 13 0ZM13 1.3C6.5306 1.3 1.3 6.53061 1.3 13C1.3 19.4694 6.5306 24.7 13 24.7C19.4694 24.7 24.7 19.4694 24.7 13C24.7 6.53061 19.4694 1.3 13 1.3ZM13 3.575C13.359 3.575 13.65 3.866 13.65 4.225V13C13.65 13.1795 13.5747 13.3394 13.457 13.457L7.71875 19.2054C7.46491 19.4593 7.04838 19.4593 6.79453 19.2054C6.54068 18.9516 6.54068 18.5351 6.79453 18.2812L12.35 12.7359V4.225C12.35 3.866 12.641 3.575 13 3.575Z" fill="#666A6C"/>
</svg>
