<svg width="14" height="14" viewBox="0 0 14 14" fill="none" xmlns="http://www.w3.org/2000/svg">
<path d="M3.35923 14.0004C2.71748 14.0004 2.07558 13.7561 1.58689 13.2674L0.733037 12.4136C-0.244346 11.4363 -0.244346 9.84595 0.733037 8.86872L4.5369 5.06501C5.51429 4.08747 7.10467 4.08794 8.08174 5.06501L8.93544 5.9187C9.04063 6.02375 9.13651 6.13827 9.22057 6.25885C9.37114 6.47514 9.318 6.77271 9.1017 6.92343C8.88556 7.07416 8.58784 7.02071 8.43711 6.80456C8.38521 6.73013 8.32585 6.65912 8.26044 6.5937L7.40674 5.74001C6.80182 5.13524 5.81713 5.13493 5.2119 5.74001L1.40804 9.54372C0.802961 10.1488 0.802961 11.1335 1.40804 11.7386L2.26189 12.5924C2.86712 13.1976 3.8518 13.1973 4.45672 12.5924L6.6455 10.4035C6.83197 10.217 7.13404 10.217 7.3205 10.4035C7.50697 10.5898 7.50697 10.892 7.3205 11.0785L5.13172 13.2674C4.64303 13.7561 4.00113 14.0004 3.35923 14.0004Z" fill="#034A2F"/>
<path d="M7.68446 9.66843C7.0424 9.66843 6.40066 9.42401 5.91197 8.93532L5.05827 8.08162C4.95307 7.97658 4.8572 7.86206 4.77314 7.74148C4.62257 7.52518 4.67571 7.22762 4.89201 7.07689C5.10846 6.92663 5.40603 6.97978 5.5566 7.19576C5.6085 7.2702 5.66785 7.34121 5.73327 7.40662L6.58697 8.26032C7.19204 8.86539 8.17673 8.86571 8.7818 8.26032L12.5857 4.45661C13.1907 3.85153 13.1907 2.86685 12.5857 2.26177L11.7318 1.40792C11.1266 0.802689 10.1419 0.803 9.53698 1.40792L7.34821 3.59685C7.16174 3.78332 6.85967 3.78332 6.67321 3.59685C6.48674 3.41054 6.48674 3.10832 6.67321 2.92185L8.86198 0.73292C9.83937 -0.244307 11.4294 -0.244307 12.4068 0.73292L13.2607 1.58677C14.2381 2.564 14.2381 4.15438 13.2607 5.13161L9.4568 8.93532C8.96827 9.42401 8.32621 9.66843 7.68446 9.66843Z" fill="#034A2F"/>
</svg>
