<svg width="28" height="26" viewBox="0 0 28 26" fill="none" xmlns="http://www.w3.org/2000/svg">
<path d="M13.9691 26L13.5383 25.7237C9.35668 23.0434 3.87951 18.7778 1.53231 13.6753C-1.65983 6.73417 0.67239 2.40246 3.63948 0.802002C6.63817 -0.815217 11.0963 -0.118772 13.9782 4.11236C16.3495 0.770134 20.58 -1.24271 24.407 0.8587C27.373 2.48679 29.6747 6.82325 26.4006 13.6862C23.8021 19.1328 17.7667 23.566 14.3999 25.7237L13.9691 26ZM6.87875 1.71631C6.01616 1.71028 5.16471 1.91961 4.39555 2.32682C2.08264 3.57405 0.333887 7.10021 3.01646 12.9332C5.11293 17.4906 10.0389 21.4133 13.9687 23.9826C17.246 21.8343 22.616 17.7669 24.9273 12.922C27.1867 8.18582 26.6814 4.04714 23.6404 2.3778C21.0323 0.945834 17.0081 1.77272 14.6882 6.12452L13.9691 7.4733L13.2504 6.12429C11.6045 3.03826 9.10826 1.71631 6.87875 1.71631Z" fill="#666A6C"/>
</svg>
