<svg width="32" height="26" viewBox="0 0 32 26" fill="none" xmlns="http://www.w3.org/2000/svg">
<path d="M0.761637 26C1.202 26 1.52227 25.6411 1.52227 25.2423C1.48224 22.0517 2.36297 18.9809 4.08441 16.3487C5.36548 18.4225 7.32712 19.9779 9.68909 20.7357C10.77 21.0946 11.8909 21.294 13.0119 21.294C14.6132 21.294 16.2546 20.9351 17.7358 20.1773C21.539 18.263 33.1487 4.86287 31.9076 2.0313C31.7475 1.71225 31.2671 0.994382 29.8259 1.51284C25.102 3.22774 22.0995 2.19082 19.177 1.19379C16.1345 0.156872 12.9318 -0.959806 8.24789 1.3932C3.32378 3.86584 1.202 9.76828 3.32378 14.8332C1.12194 17.8642 -0.0390318 21.4535 0.00100158 25.2821C0.00100158 25.681 0.361302 26 0.761637 26ZM8.96849 2.74916C10.77 1.83189 12.2913 1.51284 13.6924 1.51284C15.4539 1.51284 17.0152 2.0313 18.6966 2.62952C21.6991 3.66643 25.142 4.86287 30.3864 2.94857C30.4264 2.94857 30.4664 2.90869 30.5065 2.90869C29.906 5.42121 21.1787 16.7475 17.0552 18.7815C14.8934 19.8583 12.4514 20.0178 10.1695 19.26C7.96765 18.5422 6.16615 17.0267 5.04521 14.9529C5.36548 14.5939 5.68575 14.1951 6.00602 13.8761C8.96849 10.8451 12.9718 9.13018 17.2554 9.05042C17.6958 9.05042 18.016 8.69149 18.016 8.29267C18.016 7.89386 17.6557 7.53493 17.2554 7.53493C12.5715 7.61469 8.20785 9.48911 4.92511 12.7993C4.72495 12.9987 4.56481 13.1981 4.40468 13.3975C3.12361 9.32959 4.96515 4.74323 8.96849 2.74916Z" fill="#666A6C"/>
</svg>
