<svg width="100" height="38" viewBox="0 0 100 38" fill="none" xmlns="http://www.w3.org/2000/svg">
<g clip-path="url(#clip0_2216_10656)">
<path d="M38.1318 6.0155H48.0345C49.8624 6.0155 51.447 6.3323 52.7841 6.9659C54.1227 7.5995 55.2152 8.46428 56.0644 9.5631C56.9108 10.6619 57.5407 11.9448 57.9541 13.4175C58.3675 14.8888 58.5728 16.4628 58.5728 18.1381C58.5728 19.8134 58.3675 21.386 57.9541 22.8587C57.5407 24.3286 56.9122 25.6143 56.0644 26.7131C55.2152 27.8105 54.1241 28.6767 52.7841 29.3103C51.447 29.9439 49.8624 30.2607 48.0345 30.2607H38.1318V6.0155ZM42.3148 26.7959H46.4303C48.0584 26.7959 49.3914 26.5761 50.4276 26.1338C51.4653 25.6928 52.2794 25.082 52.8713 24.3C53.4618 23.5194 53.8625 22.6033 54.0749 21.5501C54.2872 20.4984 54.3926 19.3596 54.3926 18.1381C54.3926 16.9166 54.2872 15.7778 54.0749 14.7247C53.8625 13.6715 53.4618 12.7554 52.8713 11.9748C52.2794 11.1942 51.4653 10.5834 50.4276 10.141C49.3914 9.70009 48.057 9.4789 46.4303 9.4789H42.3148V26.7973V26.7959Z" fill="white"/>
<path d="M60.6709 6.0155H64.4841V9.68297H60.6709V6.0155ZM60.6709 12.704H64.4841V30.2593H60.6709V12.704Z" fill="white"/>
<path d="M66.0078 12.704H70.1894L74.7055 25.8112H74.7716L79.1542 12.704H83.1375L76.4125 31.2097C76.1003 32.0017 75.7938 32.7609 75.4929 33.4858C75.1906 34.2093 74.8237 34.8486 74.3892 35.4037C73.9547 35.9588 73.4134 36.3998 72.7666 36.728C72.1199 37.0562 71.2945 37.2203 70.2906 37.2203C69.3992 37.2203 68.5176 37.1533 67.6487 37.0163V33.7569C67.9608 33.8026 68.2617 33.8525 68.5513 33.9096C68.8396 33.9653 69.1419 33.9938 69.454 33.9938C69.8997 33.9938 70.2681 33.9382 70.5577 33.824C70.8474 33.7113 71.0864 33.5486 71.2776 33.3331C71.466 33.1176 71.6291 32.8622 71.7613 32.5696C71.8949 32.2757 72.0186 31.936 72.1297 31.5507L72.5656 30.1936L66.0092 12.7054L66.0078 12.704Z" fill="white"/>
<path d="M98.1583 26.3549C98.1583 26.8287 98.2201 27.1698 98.3425 27.3724C98.4648 27.5765 98.7052 27.6792 99.0623 27.6792H99.4645C99.6205 27.6792 99.7991 27.6578 100 27.6121V30.2935C99.8666 30.3392 99.6922 30.3891 99.4813 30.4462C99.269 30.5019 99.0525 30.5532 98.8289 30.5989C98.6054 30.6446 98.3832 30.6774 98.1597 30.7002C97.9375 30.7245 97.7463 30.7359 97.5916 30.7359C96.8113 30.7359 96.1645 30.5761 95.6527 30.2593C95.1395 29.9425 94.8035 29.3874 94.6488 28.5954C93.8895 29.3417 92.9601 29.8854 91.855 30.225C90.7513 30.5646 89.6869 30.7345 88.6605 30.7345C87.8801 30.7345 87.1321 30.6274 86.4179 30.412C85.705 30.1965 85.0737 29.8811 84.5282 29.4616C83.9812 29.042 83.5468 28.5097 83.2234 27.8647C82.8986 27.2183 82.7383 26.4662 82.7383 25.6072C82.7383 24.5212 82.9337 23.6379 83.3232 22.9572C83.7127 22.2779 84.2259 21.7456 84.8628 21.3603C85.4969 20.9764 86.2126 20.6996 87.0042 20.5298C87.7944 20.36 88.5916 20.2301 89.3959 20.1402C90.0876 20.0046 90.7457 19.9076 91.3699 19.8505C91.9928 19.7949 92.5454 19.6978 93.0262 19.5623C93.5057 19.4267 93.8853 19.2169 94.1637 18.9329C94.4421 18.6504 94.5827 18.2266 94.5827 17.66C94.5827 17.162 94.4646 16.7553 94.2312 16.4385C93.9964 16.1203 93.7053 15.8762 93.3609 15.7079C93.015 15.538 92.6297 15.4239 92.2051 15.3682C91.7819 15.3111 91.3798 15.2826 91.0015 15.2826C89.9315 15.2826 89.0486 15.5095 88.3582 15.9619C87.6664 16.4142 87.2755 17.1163 87.1884 18.0667H83.3724C83.4399 16.9365 83.707 15.9961 84.1767 15.2498C84.6463 14.5034 85.241 13.9041 85.9665 13.4503C86.6906 12.9979 87.5118 12.6811 88.4243 12.4999C89.3396 12.3187 90.276 12.2288 91.2349 12.2288C92.0814 12.2288 92.9194 12.3172 93.7447 12.4999C94.5701 12.6811 95.311 12.9765 95.9691 13.3832C96.6271 13.7899 97.1572 14.3165 97.5579 14.9615C97.9586 15.608 98.1597 16.3943 98.1597 17.3218V26.3549H98.1583ZM94.3451 21.4645C93.7644 21.8498 93.053 22.0824 92.2037 22.1609C91.3573 22.2394 90.5094 22.3592 89.6616 22.5176C89.2609 22.5847 88.87 22.6803 88.4918 22.8059C88.1121 22.93 87.7775 23.0999 87.4879 23.3153C87.1982 23.5308 86.969 23.8134 86.8017 24.1644C86.6358 24.5155 86.5514 24.9393 86.5514 25.4373C86.5514 25.8669 86.6738 26.2293 86.9198 26.5233C87.1645 26.8173 87.4597 27.0485 87.807 27.2183C88.1543 27.3881 88.5311 27.508 88.9445 27.575C89.3579 27.6435 89.7319 27.6778 90.0665 27.6778C90.4897 27.6778 90.9467 27.6207 91.4374 27.508C91.9281 27.3952 92.3907 27.2011 92.8266 26.9314C93.261 26.6589 93.6238 26.3135 93.9134 25.8954C94.2031 25.4759 94.3479 24.9621 94.3479 24.3514V21.4645H94.3451Z" fill="white"/>
<path d="M8.58677 18.2851L1.13338 19.6594L1.5805 22.3293L8.35056 21.1977L0.18009 26.3193L0.00292969 26.4292L1.52145 28.6925L11.5085 22.4364L8.26338 35.3567L10.9503 36.0531L14.1125 23.2398C14.5779 21.2733 14.2404 20.3558 13.5037 19.4339C12.1061 17.6943 9.45992 18.1424 8.58677 18.2851Z" fill="white"/>
<path d="M19.1685 18.1653C19.7703 18.1653 20.2891 18.0968 20.5914 18.054L28.0884 16.9138L27.7158 14.2309L20.9148 15.1499L29.2357 10.2881L29.4157 10.1839L27.966 7.87353L17.7976 13.8128L21.3802 1.19218L21.4336 1.00096L18.7692 0.221802L15.2189 12.9323C14.6917 14.8788 15.001 15.8078 15.7125 16.7554C16.5884 17.9184 18.0296 18.1667 19.1685 18.1667V18.1653Z" fill="white"/>
<path d="M18.3262 19.0899C17.581 18.6033 16.5869 18.6946 15.8389 19.3254C15.1092 20.026 14.9545 21.1562 15.479 22.0139L20.7432 30.6346L21.1776 31.3124L23.6719 29.7241L19.2528 22.96L29.424 29.2803L29.5913 29.3845L31.0944 26.8972L18.3262 19.0885V19.0899Z" fill="white"/>
<path d="M12.1088 17.5302C12.1341 17.5302 12.1608 17.5331 12.1861 17.5331C12.2662 17.5331 12.3478 17.5273 12.4251 17.5159C12.7359 17.476 13.1577 17.2819 13.4094 17.065L13.512 16.9751L13.519 16.9694C14.2741 16.2473 14.454 15.0743 13.9296 14.3094L9.37966 6.77754L8.948 6.09399L6.63789 7.56812L10.399 13.5887L1.631 8.23168L1.46087 8.12894L0 10.6148L11.0711 17.212C11.3903 17.4175 11.7418 17.5245 12.1088 17.5302Z" fill="white"/>
</g>
<defs>
<clipPath id="clip0_2216_10656">
<rect width="100" height="37" fill="white" transform="translate(0 0.220337)"/>
</clipPath>
</defs>
</svg>
