<svg width="12" height="11" viewBox="0 0 12 11" fill="none" xmlns="http://www.w3.org/2000/svg">
<path d="M5.31614 0.459746C5.46544 0.00026834 6.11548 0.000267744 6.26478 0.459746L7.19602 3.32571C7.26279 3.53119 7.45428 3.67032 7.67034 3.67032H10.6839C11.167 3.67032 11.3679 4.28856 10.977 4.57253L8.53905 6.34375C8.36424 6.47074 8.2911 6.69586 8.35787 6.90135L9.28909 9.76726C9.43839 10.2267 8.9125 10.6088 8.52164 10.3249L6.0836 8.5536C5.9088 8.42661 5.67212 8.42661 5.49732 8.5536L3.05929 10.3249C2.66842 10.6088 2.14253 10.2267 2.29183 9.76726L3.22305 6.90136C3.28983 6.69586 3.21668 6.47075 3.04187 6.34375L0.603914 4.57253C0.213043 4.28856 0.413916 3.67032 0.897052 3.67032H3.91058C4.12664 3.67032 4.31813 3.53119 4.3849 3.32571L5.31614 0.459746Z" fill="#EEAB70"/>
</svg>
